# Blender 4.0.2
# www.blender.org
mtllib test1.mtl
o BookCover
v 0.740000 -0.110000 -0.490000
v 0.740000 0.110000 -0.490000
v 0.740000 -0.110000 0.490000
v 0.740000 0.110000 0.490000
v -0.740000 -0.110000 -0.490000
v -0.740000 0.110000 -0.490000
v -0.740000 -0.110000 0.490000
v -0.740000 0.110000 0.490000
v -0.740000 0.129476 -0.490000
v -0.740000 0.129476 0.490000
v 0.740000 0.129476 -0.490000
v 0.740000 -0.129476 0.490000
v -0.740000 -0.129476 0.490000
v 0.740000 -0.129476 -0.490000
v 0.740000 0.129476 0.490000
v -0.740000 -0.129476 -0.490000
v -0.762363 0.110000 -0.504808
v -0.771626 0.110000 0.490000
v 0.762363 0.110000 -0.504808
v 0.762363 -0.110000 -0.504808
v 0.771626 -0.110000 0.490000
v -0.771626 -0.110000 0.490000
v -0.762363 -0.110000 -0.504808
v 0.771626 0.110000 0.490000
v -0.762363 0.129476 -0.504808
v -0.771626 0.129476 0.490000
v 0.762363 0.129476 -0.504808
v 0.762363 -0.129476 -0.504808
v 0.771626 -0.129476 0.490000
v -0.771626 -0.129476 0.490000
v -0.762363 -0.129476 -0.504808
v 0.771626 0.129476 0.490000
v -0.740000 0.110000 0.506874
v -0.740000 -0.110000 0.506874
v 0.740000 -0.110000 0.506874
v 0.740000 0.110000 0.506874
v 0.740000 -0.129476 0.506874
v -0.740000 -0.129476 0.506874
v -0.740000 0.129476 0.506874
v 0.740000 0.129476 0.506874
v -0.771626 -0.129476 0.506874
v -0.771626 -0.110000 0.506874
v 0.771626 0.110000 0.506874
v 0.771626 0.129476 0.506874
v -0.771626 0.129476 0.506874
v -0.771626 0.110000 0.506874
v 0.771626 -0.129476 0.506874
v 0.771626 -0.110000 0.506874
vn -0.0000 -1.0000 -0.0000
vn -0.0000 1.0000 -0.0000
vn 1.0000 -0.0000 -0.0000
vn -1.0000 -0.0000 -0.0093
vn 1.0000 -0.0000 -0.0093
vn -0.0000 -0.0000 -1.0000
vn -1.0000 -0.0000 -0.0000
vn -0.0000 -0.0000 1.0000
vt 0.375000 0.500000
vt 0.375000 0.750000
vt 0.125000 0.750000
vt 0.875000 0.500000
vt 0.625000 0.500000
vt 0.592687 0.249013
vt 0.999087 0.249013
vt 0.999087 1.000000
vt 0.592687 1.000000
vt -0.001273 1.000119
vt -0.000960 0.247376
vt 0.420051 0.249099
vt 0.419738 1.001842
vt 0.625000 0.250000
vt 0.875000 0.750000
vt 0.625000 0.750000
vt 0.625000 0.000000
vt 0.375000 0.000000
vt 0.375000 0.250000
vt 0.125000 0.500000
vt 0.000000 0.000000
vt 0.440402 0.250000
vt 0.587512 0.250000
vt 0.587512 1.000000
vt 0.440402 1.000000
vt 0.625000 1.000000
vt 0.375000 1.000000
s 0
usemtl Image
f 2/1/1 19/1/1 24/2/1 4/2/1
f 26/3/2 45/3/2 39/3/2 10/3/2
f 16/4/1 31/4/1 28/5/1 14/5/1
f 14/6/1 12/9/1 13/8/1 16/7/1
f 9/10/2 10/13/2 15/12/2 11/11/2
f 1/5/2 20/5/2 23/14/2 5/14/2
f 13/15/1 30/15/1 31/4/1 16/4/1
f 21/16/3 48/16/3 47/16/3 29/16/3
f 5/14/2 23/14/2 22/17/2 7/17/2
f 32/2/3 44/2/3 43/2/3 24/2/3
f 29/16/1 47/16/1 37/16/1 12/16/1
f 18/18/4 26/18/4 25/19/4 17/19/4
f 19/1/5 27/1/5 32/2/5 24/2/5
f 23/14/4 31/14/4 30/17/4 22/17/4
f 21/16/5 29/16/5 28/5/5 20/5/5
f 17/19/6 25/19/6 27/1/6 19/1/6
f 20/5/6 28/5/6 31/14/6 23/14/6
f 15/2/2 32/2/2 27/1/2 11/1/2
f 9/20/2 25/20/2 26/3/2 10/3/2
f 10/3/2 39/3/2 40/2/2 15/2/2
f 18/18/7 46/18/7 45/18/7 26/18/7
f 11/1/2 27/1/2 25/20/2 9/20/2
f 3/16/2 21/16/2 20/5/2 1/5/2
f 8/18/1 18/18/1 17/19/1 6/19/1
f 14/5/1 28/5/1 29/16/1 12/16/1
f 24/21/3 43/21/3 48/21/3 21/21/3
f 6/19/1 17/19/1 19/1/1 2/1/1
f 15/2/2 40/2/2 44/2/2 32/2/2
f 13/15/1 38/15/1 41/15/1 30/15/1
f 36/22/8 33/25/8 34/24/8 35/23/8
f 34/26/8 42/26/8 41/26/8 38/26/8
f 36/2/8 40/2/8 39/27/8 33/27/8
f 34/26/8 38/26/8 37/16/8 35/16/8
f 37/16/8 47/16/8 48/16/8 35/16/8
f 36/2/8 43/2/8 44/2/8 40/2/8
f 39/27/8 45/27/8 46/27/8 33/27/8
f 48/16/8 43/2/8 36/2/8 35/16/8
f 46/27/8 42/26/8 34/26/8 33/27/8
f 22/21/7 42/21/7 46/21/7 18/21/7
f 30/17/7 41/17/7 42/17/7 22/17/7
f 12/16/1 37/16/1 38/15/1 13/15/1
o Pages
v 0.740454 -0.110005 -0.490291
v 0.737962 0.109991 -0.488349
v 0.742552 -0.109989 0.490131
v 0.737255 0.110005 0.489833
v -0.741935 -0.109980 -0.491253
v -0.742207 0.109959 -0.491206
v -0.742634 -0.109961 0.489968
v -0.740406 0.109999 0.489982
v 0.738621 -0.096294 -0.488967
v 0.740392 -0.082495 -0.490304
v 0.737843 -0.068742 -0.488244
v 0.740354 -0.054992 -0.490204
v 0.739927 -0.041248 -0.489961
v 0.740463 -0.027501 -0.490223
v 0.740998 -0.013735 -0.490820
v 0.738126 0.000042 -0.488592
v 0.738301 0.013776 -0.488694
v 0.741196 0.027491 -0.490624
v 0.738549 0.041237 -0.489233
v 0.738416 0.054995 -0.488941
v 0.741202 0.068743 -0.490809
v 0.737296 0.082550 -0.488488
v 0.740785 0.096225 -0.490592
v -0.738533 0.096270 0.490019
v -0.736370 0.082491 0.490201
v -0.740550 0.068741 0.490022
v -0.739765 0.054996 0.490002
v -0.742898 0.041221 0.490073
v -0.741038 0.027481 0.490016
v -0.738386 0.013756 0.490050
v -0.740105 -0.000001 0.490008
v -0.742178 -0.013744 0.490128
v -0.737253 -0.027457 0.489963
v -0.737145 -0.041270 0.489865
v -0.741112 -0.054980 0.490050
v -0.738660 -0.068762 0.489901
v -0.739432 -0.082493 0.490031
v -0.742037 -0.096239 0.490022
v 0.738414 -0.096230 0.490127
v 0.739995 -0.082500 0.490000
v 0.743462 -0.068781 0.489836
v 0.740054 -0.055000 0.490004
v 0.743130 -0.041201 0.490120
v 0.742913 -0.027507 0.489880
v 0.743056 -0.013775 0.490106
v 0.741887 -0.000025 0.490022
v 0.737907 0.013752 0.489928
v 0.737605 0.027468 0.490063
v 0.740814 0.041231 0.489996
v 0.742571 0.054984 0.490014
v 0.742388 0.068737 0.490149
v 0.737502 0.082450 0.489930
v 0.742943 0.096287 0.490132
v -0.738322 -0.096244 -0.489027
v -0.742083 -0.082496 -0.491621
v -0.737953 -0.068789 -0.488446
v -0.739674 -0.055000 -0.489758
v -0.741357 -0.041254 -0.490824
v -0.740095 -0.027499 -0.490059
v -0.738607 -0.013713 -0.488924
v -0.738581 0.000020 -0.488913
v -0.737290 0.013697 -0.488504
v -0.738482 0.027508 -0.489141
v -0.738051 0.041297 -0.488828
v -0.737949 0.054989 -0.488732
v -0.741449 0.068755 -0.490938
v -0.740463 0.082505 -0.490374
v -0.741376 0.096262 -0.491187
vn -0.9884 0.1517 -0.0022
vn 0.9772 0.2124 -0.0010
vn 0.0003 0.1283 -0.9917
vn 0.0012 0.0809 -0.9967
vn 0.0008 -0.1058 -0.9944
vn 0.0007 0.1042 -0.9946
vn -0.0000 -0.1465 -0.9892
vn -0.0002 0.0141 -0.9999
vn -0.0006 0.0617 -0.9981
vn -0.0006 -0.0928 -0.9957
vn -0.0000 0.0112 -0.9999
vn -0.0005 0.0810 -0.9967
vn -0.0007 0.0196 -0.9998
vn 0.0002 0.0183 -0.9998
vn 0.0001 -0.0299 -0.9996
vn -0.0001 -0.1180 -0.9930
vn 0.0005 0.1873 -0.9823
vn 0.0005 -0.1412 -0.9900
vn 0.9552 0.2959 -0.0007
vn 0.9511 -0.3088 -0.0012
vn 0.9526 0.3043 -0.0007
vn 0.9955 -0.0944 -0.0027
vn 0.9983 -0.0589 -0.0033
vn 0.9998 -0.0205 0.0007
vn 0.9956 -0.0940 0.0020
vn 0.9906 0.1370 -0.0017
vn 0.9894 0.1454 -0.0029
vn 0.9997 -0.0247 -0.0023
vn 0.9999 -0.0117 -0.0029
vn 0.9954 -0.0957 -0.0015
vn 0.9995 0.0324 -0.0027
vn 0.9994 -0.0332 -0.0027
vn 0.9927 -0.1208 0.0003
vn -0.9952 -0.0981 0.0024
vn -0.9938 -0.1109 0.0035
vn -0.9828 0.1846 0.0025
vn -0.9881 -0.1539 -0.0005
vn -0.9931 0.1169 -0.0034
vn -0.9987 -0.0518 -0.0038
vn -0.9904 -0.1383 -0.0018
vn -0.9940 0.1091 -0.0013
vn -0.9971 0.0761 -0.0026
vn -0.9923 -0.1240 -0.0004
vn -0.9991 0.0417 0.0036
vn -0.9965 0.0830 0.0014
vn -0.9887 -0.1497 -0.0011
vn -0.9844 0.1758 0.0010
vn -0.9991 -0.0421 -0.0005
vt 0.001309 0.014225
vt 0.001263 -0.001400
vt 0.333239 -0.001947
vt 0.333284 0.013678
vt 0.665260 0.013132
vt 0.665215 -0.002493
vt 0.997191 -0.003040
vt 0.997236 0.012585
vt 0.333965 0.248053
vt 0.333919 0.232428
vt 0.665895 0.231881
vt 0.665941 0.247506
vt 0.333874 0.216803
vt 0.665850 0.216256
vt 0.333829 0.201178
vt 0.665805 0.200631
vt 0.333783 0.185553
vt 0.665759 0.185006
vt 0.333738 0.169928
vt 0.665714 0.169381
vt 0.333693 0.154303
vt 0.665669 0.153756
vt 0.333647 0.138678
vt 0.665623 0.138131
vt 0.333602 0.123053
vt 0.665578 0.122506
vt 0.333557 0.107428
vt 0.665532 0.106881
vt 0.333511 0.091803
vt 0.665487 0.091256
vt 0.333466 0.076178
vt 0.665442 0.075632
vt 0.333421 0.060553
vt 0.665396 0.060007
vt 0.333375 0.044928
vt 0.665351 0.044382
vt 0.333330 0.029303
vt 0.665306 0.028757
vt 0.997871 0.231335
vt 0.997917 0.246960
vt 0.997826 0.215710
vt 0.997781 0.200085
vt 0.997735 0.184460
vt 0.997690 0.168835
vt 0.997644 0.153210
vt 0.997599 0.137585
vt 0.997554 0.121960
vt 0.997508 0.106335
vt 0.997463 0.090710
vt 0.997418 0.075085
vt 0.997372 0.059460
vt 0.997327 0.043835
vt 0.997282 0.028210
vt 0.001989 0.248599
vt 0.001943 0.232974
vt 0.001898 0.217349
vt 0.001853 0.201724
vt 0.001807 0.186099
vt 0.001762 0.170474
vt 0.001717 0.154849
vt 0.001671 0.139224
vt 0.001626 0.123599
vt 0.001581 0.107974
vt 0.001535 0.092349
vt 0.001490 0.076724
vt 0.001445 0.061099
vt 0.001399 0.045474
vt 0.001354 0.029849
s 0
usemtl Material.003
f 86/28/9 102/31/9 53/30/9 55/29/9
f 57/32/10 87/35/10 51/34/10 49/33/10
f 102/31/11 57/32/11 49/33/11 53/30/11
f 54/36/12 50/39/12 71/38/12 116/37/12
f 116/37/13 71/38/13 70/41/13 115/40/13
f 115/40/14 70/41/14 69/43/14 114/42/14
f 114/42/15 69/43/15 68/45/15 113/44/15
f 113/44/16 68/45/16 67/47/16 112/46/16
f 112/46/17 67/47/17 66/49/17 111/48/17
f 111/48/18 66/49/18 65/51/18 110/50/18
f 110/50/19 65/51/19 64/53/19 109/52/19
f 109/52/20 64/53/20 63/55/20 108/54/20
f 108/54/21 63/55/21 62/57/21 107/56/21
f 107/56/22 62/57/22 61/59/22 106/58/22
f 106/58/23 61/59/23 60/61/23 105/60/23
f 105/60/24 60/61/24 59/63/24 104/62/24
f 104/62/25 59/63/25 58/65/25 103/64/25
f 103/64/26 58/65/26 57/32/26 102/31/26
f 50/39/27 52/67/27 101/66/27 71/38/27
f 71/38/28 101/66/28 100/68/28 70/41/28
f 70/41/29 100/68/29 99/69/29 69/43/29
f 69/43/30 99/69/30 98/70/30 68/45/30
f 68/45/31 98/70/31 97/71/31 67/47/31
f 67/47/32 97/71/32 96/72/32 66/49/32
f 66/49/33 96/72/33 95/73/33 65/51/33
f 65/51/34 95/73/34 94/74/34 64/53/34
f 64/53/35 94/74/35 93/75/35 63/55/35
f 63/55/36 93/75/36 92/76/36 62/57/36
f 62/57/37 92/76/37 91/77/37 61/59/37
f 61/59/38 91/77/38 90/78/38 60/61/38
f 60/61/39 90/78/39 89/79/39 59/63/39
f 59/63/40 89/79/40 88/80/40 58/65/40
f 58/65/41 88/80/41 87/35/41 57/32/41
f 56/81/42 54/36/42 116/37/42 72/82/42
f 72/82/43 116/37/43 115/40/43 73/83/43
f 73/83/44 115/40/44 114/42/44 74/84/44
f 74/84/45 114/42/45 113/44/45 75/85/45
f 75/85/46 113/44/46 112/46/46 76/86/46
f 76/86/47 112/46/47 111/48/47 77/87/47
f 77/87/48 111/48/48 110/50/48 78/88/48
f 78/88/49 110/50/49 109/52/49 79/89/49
f 79/89/50 109/52/50 108/54/50 80/90/50
f 80/90/51 108/54/51 107/56/51 81/91/51
f 81/91/52 107/56/52 106/58/52 82/92/52
f 82/92/53 106/58/53 105/60/53 83/93/53
f 83/93/54 105/60/54 104/62/54 84/94/54
f 84/94/55 104/62/55 103/64/55 85/95/55
f 85/95/56 103/64/56 102/31/56 86/28/56
