# Blender 4.0.2
# www.blender.org
mtllib THISBETTER.mtl
o BookCover
v 0.740000 -0.110000 -0.490000
v 0.740000 0.110000 -0.490000
v 0.740000 -0.110000 0.490000
v 0.740000 0.110000 0.490000
v -0.740000 -0.110000 -0.490000
v -0.740000 0.110000 -0.490000
v -0.740000 -0.110000 0.490000
v -0.740000 0.110000 0.490000
v -0.762363 0.110000 -0.504808
v -0.771626 0.110000 0.490000
v 0.762363 0.110000 -0.504808
v 0.762363 -0.110000 -0.504808
v 0.771626 -0.110000 0.490000
v -0.771626 -0.110000 0.490000
v -0.762363 -0.110000 -0.504808
v 0.771626 0.110000 0.490000
v -0.762363 0.129476 -0.504808
v 0.762363 0.129476 -0.504808
v 0.762363 -0.129476 -0.504808
v -0.762363 -0.129476 -0.504808
v -0.771626 -0.129476 0.506874
v 0.771626 0.129476 0.506874
v -0.771626 0.129476 0.506874
v 0.771626 -0.129476 0.506874
v 0.766994 -0.110000 -0.007404
v 0.766994 0.110000 -0.007404
v 0.766994 0.129476 0.001033
v 0.762363 0.119738 -0.504808
v 0.762363 -0.119738 -0.504808
v 0.771626 0.000000 0.506874
v 0.766994 -0.129476 0.001033
v 0.769310 -0.110000 0.241298
v 0.764679 0.110000 -0.256106
v 0.764679 0.129476 -0.251887
v 0.762363 0.114869 -0.504808
v 0.762363 -0.124607 -0.504808
v 0.771626 -0.064738 0.506874
v 0.764679 -0.129476 -0.251887
v 0.764679 -0.110000 -0.256106
v 0.769310 0.110000 0.241298
v 0.769310 0.129476 0.253953
v 0.762363 0.124607 -0.504808
v 0.762363 -0.114869 -0.504808
v 0.771626 0.064738 0.506874
v 0.769310 -0.129476 0.253953
v 0.762363 0.110000 -0.504808
v 0.762363 -0.110000 -0.504808
v 0.771626 -0.110000 0.490000
v 0.771626 0.110000 0.490000
v 0.762363 0.129476 -0.504808
v 0.762363 -0.129476 -0.504808
v 0.771626 0.129476 0.506874
v 0.771626 -0.129476 0.506874
v 0.766994 -0.110000 -0.007404
v 0.766994 0.110000 -0.007404
v 0.766994 0.129476 0.001033
v 0.762363 0.119738 -0.504808
v 0.762363 -0.119738 -0.504808
v 0.771626 0.000000 0.490000
v 0.771626 0.000000 0.506874
v 0.766994 -0.129476 0.001033
v 0.769310 -0.110000 0.241298
v 0.764679 0.110000 -0.256106
v 0.764679 0.129476 -0.251887
v 0.762363 0.114869 -0.504808
v 0.762363 -0.124607 -0.504808
v 0.771626 -0.055000 0.490000
v 0.771626 -0.064738 0.506874
v 0.764679 -0.129476 -0.251887
v 0.764679 -0.110000 -0.256106
v 0.769310 0.110000 0.241298
v 0.769310 0.129476 0.253953
v 0.762363 0.124607 -0.504808
v 0.762363 -0.114869 -0.504808
v 0.771626 0.055000 0.490000
v 0.771626 0.064738 0.506874
v 0.769310 -0.129476 0.253953
vn -0.0000 -0.0000 1.0000
vn -1.0000 -0.0000 -0.0000
vn -0.0000 1.0000 -0.0000
vn -0.0000 -1.0000 -0.0000
vn -0.0000 -0.0000 -1.0000
vn 0.9999 -0.0080 -0.0093
vn -1.0000 -0.0000 -0.0093
vn -1.0000 -0.0000 -0.0092
vn -0.9999 -0.0081 -0.0093
vn -0.9999 0.0079 -0.0092
vn -1.0000 -0.0066 -0.0000
vn 1.0000 -0.0000 -0.0092
vn 1.0000 -0.0000 -0.0093
vn 0.9999 0.0074 -0.0093
vn 0.9999 0.0081 -0.0093
vn 1.0000 -0.0000 -0.0000
vt 0.545668 0.265958
vt 0.581436 0.265958
vt 0.438366 0.996119
vt 0.925954 0.257847
vt 0.999652 0.260673
vt 0.999752 0.239215
vt 0.645530 0.483076
vt 0.641005 0.787075
vt 0.641005 0.478550
vt 0.632812 0.253125
vt 0.382812 0.253125
vt 0.008130 0.930297
vt 0.008130 0.899538
vt 0.008130 0.269166
vt 0.995102 0.564980
vt 0.995102 0.814980
vt 0.597669 0.265638
vt 0.887699 0.984381
vt 0.791023 0.984381
vt 0.228504 0.265920
vt 0.331040 0.265921
vt 0.433576 0.984484
vt 0.834367 0.985791
vt 0.456200 0.997063
vt 0.716938 0.997158
vt 0.438366 0.265958
vt 0.474134 0.265958
vt 0.509901 0.265958
vt 0.581436 0.996119
vt 0.072933 0.242647
vt 0.072933 0.263530
vt 0.004032 0.241791
vt 0.004032 0.262674
vt 0.926426 0.249881
vt 0.645530 0.782550
vt 0.945004 0.782550
vt 0.945004 0.788949
vt 0.869005 0.477144
vt 0.945005 0.476676
vt 0.945005 0.483075
vt 0.793005 0.477613
vt 0.717005 0.478082
vt 0.882812 0.253125
vt 0.820312 0.253125
vt 0.757812 0.253125
vt 0.695312 0.253125
vt 0.132812 0.253125
vt 0.008130 0.991817
vt 0.008130 0.961057
vt 0.008130 0.868778
vt 0.694346 0.984381
vt 0.597669 0.984381
vt 0.984376 0.265638
vt 0.984376 0.984381
vt 0.023432 0.984484
vt 0.023432 0.265920
vt 0.125968 0.265920
vt 0.433576 0.265921
vt 0.794673 0.997158
vt 0.833540 0.997158
vt 0.833747 0.994316
vt 0.833953 0.991475
vt 0.755806 0.997158
vt 0.834160 0.988633
vt 0.622603 0.997134
vt 0.678071 0.997158
vt 0.534120 0.985953
vt 0.483214 0.985830
vt 0.404129 0.986058
vt 0.325044 0.986286
vt 0.585026 0.986075
vt 0.245959 0.986514
vt 0.166873 0.986741
vt 0.166873 0.989346
vt 0.635931 0.986198
vt 0.166873 0.991950
vt 0.166873 0.994554
vt 0.686837 0.986320
vt 0.166873 0.997158
vt 0.723719 0.986188
vt 0.239205 0.997134
vt 0.760602 0.986055
vt 0.311537 0.997111
vt 0.797484 0.985923
vt 0.383868 0.997087
vt 0.567136 0.997111
vt 0.511668 0.997087
s 0
usemtl Book_Cover
f 37/1/1 23/3/1 24/2/1
f 10/4/2 21/6/2 23/5/2
f 1/7/3 12/9/3 15/8/3
f 2/10/4 9/11/4 11/10/4
f 28/12/5 17/14/5 42/13/5
f 15/15/5 29/16/5 36/16/5
f 20/17/4 31/19/4 45/18/4
f 27/20/3 23/22/3 41/21/3
f 53/23/6 74/25/6 48/24/6
f 23/3/1 44/27/1 22/26/1
f 23/3/1 30/28/1 44/27/1
f 24/2/1 23/3/1 21/29/1
f 23/3/1 37/1/1 30/28/1
f 10/4/7 17/31/7 9/30/7
f 21/6/8 15/33/8 20/32/8
f 21/6/9 14/34/9 15/33/9
f 10/4/10 23/5/10 17/31/10
f 21/6/2 10/4/2 14/34/2
f 5/35/3 14/37/3 7/36/3
f 32/38/3 3/40/3 13/39/3
f 32/38/3 1/7/3 3/40/3
f 25/41/3 1/7/3 32/38/3
f 5/35/3 15/8/3 14/37/3
f 39/42/3 1/7/3 25/41/3
f 1/7/3 15/8/3 5/35/3
f 12/9/3 1/7/3 39/42/3
f 2/10/4 16/43/4 4/43/4
f 40/44/11 33/46/11 26/45/11
f 2/10/4 40/44/4 16/43/4
f 10/47/4 6/11/4 8/47/4
f 2/10/4 33/46/4 40/44/4
f 9/11/4 6/11/4 10/47/4
f 2/10/4 11/10/4 33/46/4
f 9/11/4 2/10/4 6/11/4
f 17/14/5 11/48/5 9/14/5
f 17/14/5 35/49/5 11/48/5
f 42/13/5 17/14/5 18/50/5
f 17/14/5 28/12/5 35/49/5
f 43/16/5 15/15/5 12/16/5
f 15/15/5 19/16/5 20/15/5
f 15/15/5 36/16/5 19/16/5
f 29/16/5 15/15/5 43/16/5
f 38/51/4 20/17/4 19/52/4
f 20/17/4 24/54/4 21/53/4
f 20/17/4 45/18/4 24/54/4
f 31/19/4 20/17/4 38/51/4
f 23/22/3 18/56/3 17/55/3
f 23/22/3 34/57/3 18/56/3
f 41/21/3 23/22/3 22/58/3
f 23/22/3 27/20/3 34/57/3
f 66/59/12 69/61/12 51/60/12
f 66/59/12 61/62/12 69/61/12
f 58/63/12 61/62/12 66/59/12
f 58/63/12 77/64/12 61/62/12
f 70/65/13 74/25/13 47/66/13
f 74/25/12 77/64/12 58/63/12
f 64/67/12 73/69/12 50/68/12
f 64/67/12 57/70/12 73/69/12
f 56/71/12 57/70/12 64/67/12
f 65/72/13 63/74/13 46/73/13
f 56/71/12 65/72/12 57/70/12
f 72/75/12 65/72/12 56/71/12
f 65/72/13 55/76/13 63/74/13
f 65/72/13 71/77/13 55/76/13
f 52/78/12 65/72/12 72/75/12
f 52/78/14 71/77/14 65/72/14
f 52/78/15 49/79/15 71/77/15
f 76/80/16 49/79/16 52/78/16
f 76/80/16 75/81/16 49/79/16
f 60/82/16 75/81/16 76/80/16
f 60/82/16 59/83/16 75/81/16
f 68/84/16 59/83/16 60/82/16
f 68/84/16 67/85/16 59/83/16
f 74/25/12 53/23/12 77/64/12
f 54/86/13 74/25/13 70/65/13
f 62/87/13 74/25/13 54/86/13
f 53/23/16 67/85/16 68/84/16
f 48/24/13 74/25/13 62/87/13
f 53/23/16 48/24/16 67/85/16
o Pages
v 0.740454 -0.110005 -0.490291
v 0.737962 0.109991 -0.488349
v 0.742552 -0.109989 0.490131
v 0.737255 0.110005 0.489833
v -0.741935 -0.109980 -0.491253
v -0.742207 0.109959 -0.491206
v -0.742634 -0.109961 0.489968
v -0.740406 0.109999 0.489982
v 0.738621 -0.096294 -0.488967
v 0.740392 -0.082495 -0.490304
v 0.737843 -0.068742 -0.488244
v 0.740354 -0.054992 -0.490204
v 0.739927 -0.041248 -0.489961
v 0.740463 -0.027501 -0.490223
v 0.740998 -0.013735 -0.490820
v 0.738126 0.000042 -0.488592
v 0.738301 0.013776 -0.488694
v 0.741196 0.027491 -0.490624
v 0.738549 0.041237 -0.489233
v 0.738416 0.054995 -0.488941
v 0.741202 0.068743 -0.490809
v 0.737296 0.082550 -0.488488
v 0.740785 0.096225 -0.490592
v -0.738533 0.096270 0.490019
v -0.736370 0.082491 0.490201
v -0.740550 0.068741 0.490022
v -0.739765 0.054996 0.490002
v -0.742898 0.041221 0.490073
v -0.741038 0.027481 0.490016
v -0.738386 0.013756 0.490050
v -0.740105 -0.000001 0.490008
v -0.742178 -0.013744 0.490128
v -0.737253 -0.027457 0.489963
v -0.737145 -0.041270 0.489865
v -0.741112 -0.054980 0.490050
v -0.738660 -0.068762 0.489901
v -0.739432 -0.082493 0.490031
v -0.742037 -0.096239 0.490022
v 0.738414 -0.096230 0.490127
v 0.739995 -0.082500 0.490000
v 0.743462 -0.068781 0.489836
v 0.740054 -0.055000 0.490004
v 0.743130 -0.041201 0.490120
v 0.742913 -0.027507 0.489880
v 0.743056 -0.013775 0.490106
v 0.741887 -0.000025 0.490022
v 0.737907 0.013752 0.489928
v 0.737605 0.027468 0.490063
v 0.740814 0.041231 0.489996
v 0.742571 0.054984 0.490014
v 0.742388 0.068737 0.490149
v 0.737502 0.082450 0.489930
v 0.742943 0.096287 0.490132
v -0.738322 -0.096244 -0.489027
v -0.742083 -0.082496 -0.491621
v -0.737953 -0.068789 -0.488446
v -0.739674 -0.055000 -0.489758
v -0.741357 -0.041254 -0.490824
v -0.740095 -0.027499 -0.490059
v -0.738607 -0.013713 -0.488924
v -0.738581 0.000020 -0.488913
v -0.737290 0.013697 -0.488504
v -0.738482 0.027508 -0.489141
v -0.738051 0.041297 -0.488828
v -0.737949 0.054989 -0.488732
v -0.741449 0.068755 -0.490938
v -0.740463 0.082505 -0.490374
v -0.741376 0.096262 -0.491187
vn -0.9990 0.0435 -0.0038
vn 0.9576 0.2880 0.0002
vn -0.0000 0.0961 -0.9954
vn 0.0019 -0.0013 -1.0000
vn 0.0004 -0.1522 -0.9884
vn 0.0013 0.0409 -0.9992
vn 0.0001 -0.1582 -0.9874
vn -0.0001 0.0070 -1.0000
vn -0.0003 0.0227 -0.9997
vn -0.0010 -0.1392 -0.9903
vn -0.0001 -0.0074 -1.0000
vn 0.0002 0.0008 -1.0000
vn -0.0013 -0.0432 -0.9991
vn -0.0001 -0.0191 -0.9998
vn 0.0006 -0.0772 -0.9970
vn -0.0003 -0.1411 -0.9900
vn 0.0001 0.1481 -0.9890
vn 0.0009 -0.1852 -0.9827
vn 0.9237 0.3830 0.0007
vn 0.9689 -0.2475 -0.0021
vn 0.9420 0.3356 -0.0002
vn 0.9800 -0.1987 -0.0012
vn 0.9919 -0.1268 -0.0042
vn 0.9739 -0.2270 -0.0023
vn 0.9785 -0.2060 0.0036
vn 0.9999 -0.0128 0.0004
vn 0.9964 0.0846 -0.0038
vn 0.9992 -0.0390 -0.0021
vn 0.9992 -0.0390 -0.0025
vn 0.9760 -0.2175 -0.0032
vn 0.9837 -0.1796 0.0003
vn 0.9695 -0.2451 -0.0056
vn 0.9919 -0.1272 0.0004
vn -0.9982 -0.0606 0.0018
vn -0.9978 -0.0660 0.0029
vn -0.9568 0.2908 0.0040
vn -0.9692 -0.2463 0.0009
vn -0.9751 0.2217 -0.0018
vn -0.9910 -0.1341 -0.0049
vn -0.9963 -0.0861 -0.0026
vn -0.9923 0.1240 -0.0011
vn -1.0000 0.0019 -0.0016
vn -0.9411 -0.3380 -0.0034
vn -1.0000 -0.0078 0.0029
vn -0.9926 -0.1211 0.0043
vn -0.9923 -0.1240 -0.0015
vn -0.9984 0.0561 -0.0007
vn -0.9647 -0.2634 0.0026
vn -0.9671 0.2545 -0.0007
vn 0.9912 0.1327 -0.0021
vn 0.0006 0.1598 -0.9871
vn 0.0004 0.1609 -0.9870
vn 0.0013 -0.0589 -0.9983
vn 0.0001 0.1658 -0.9862
vn -0.0001 -0.1346 -0.9909
vn -0.0003 0.0212 -0.9998
vn -0.0010 0.1005 -0.9949
vn -0.0001 -0.0460 -0.9989
vn 0.0002 0.0299 -0.9996
vn -0.0013 0.1594 -0.9872
vn -0.0001 0.0821 -0.9966
vn 0.0006 0.0555 -0.9985
vn -0.0003 0.0176 -0.9998
vn 0.0001 -0.0947 -0.9955
vn 0.0009 0.2254 -0.9743
vn -0.0000 -0.0964 -0.9953
vn 0.9795 0.2012 -0.0022
vn 0.9306 -0.3660 -0.0002
vn 0.9622 0.2724 -0.0012
vn 0.9999 0.0134 -0.0042
vn 1.0000 0.0097 -0.0023
vn 0.9820 0.1887 0.0036
vn 0.9998 0.0220 0.0004
vn 0.9607 0.2776 -0.0037
vn 0.9789 0.2044 -0.0020
vn 0.9999 -0.0103 -0.0025
vn 0.9999 0.0158 -0.0033
vn 0.9995 0.0311 0.0003
vn 0.9707 0.2401 -0.0056
vn 0.9833 0.1822 0.0004
vn 0.9934 -0.1144 0.0002
vn -0.9908 -0.1351 0.0029
vn -0.9879 -0.1550 0.0041
vn -0.9974 0.0715 0.0009
vn -0.9984 -0.0570 -0.0019
vn -1.0000 0.0075 -0.0050
vn -0.9995 0.0313 -0.0026
vn -0.9818 -0.1897 -0.0011
vn -0.9956 0.0940 -0.0015
vn -0.9888 0.1491 -0.0036
vn -0.9942 0.1071 0.0029
vn -0.9958 0.0911 0.0043
vn -0.9606 0.2779 -0.0014
vn -0.9845 -0.1751 -0.0007
vn -0.9576 0.2879 0.0026
vn -0.9825 0.1862 -0.0037
vt -0.000002 0.000010
vt 0.296617 0.015525
vt -0.000002 0.014905
vt 0.718827 0.016381
vt 0.999989 0.000010
vt 0.999989 0.014905
vt 0.718827 0.001487
vt 0.296617 0.224046
vt 0.718827 0.239796
vt 0.296617 0.238940
vt 0.718827 0.210008
vt 0.718827 0.224902
vt 0.296617 0.194257
vt 0.296617 0.209151
vt 0.296617 0.179363
vt 0.718827 0.195113
vt 0.296617 0.164468
vt 0.718827 0.180219
vt 0.296617 0.149574
vt 0.718827 0.165325
vt 0.718827 0.135536
vt 0.718827 0.150430
vt 0.296617 0.134680
vt 0.718827 0.120642
vt 0.296617 0.104891
vt 0.296617 0.119785
vt 0.718827 0.090853
vt 0.718827 0.105747
vt 0.296617 0.089996
vt 0.718827 0.075959
vt 0.296617 0.060208
vt 0.296617 0.075102
vt 0.718827 0.046170
vt 0.718827 0.061064
vt 0.296617 0.045313
vt 0.718827 0.031276
vt 0.296617 0.030419
vt 0.999989 0.223426
vt 0.999989 0.238320
vt 0.999989 0.193637
vt 0.999989 0.208531
vt 0.999989 0.163848
vt 0.999989 0.178742
vt 0.999989 0.148954
vt 0.999989 0.134059
vt 0.999989 0.104271
vt 0.999989 0.119165
vt 0.999989 0.089376
vt 0.999989 0.059588
vt 0.999989 0.074482
vt 0.999989 0.029799
vt 0.999989 0.044693
vt -0.000002 0.238320
vt -0.000002 0.223425
vt -0.000002 0.193637
vt -0.000002 0.208531
vt -0.000002 0.163848
vt -0.000002 0.178742
vt -0.000002 0.148954
vt -0.000002 0.119165
vt -0.000002 0.134059
vt -0.000002 0.089376
vt -0.000002 0.104271
vt -0.000002 0.074482
vt -0.000002 0.059588
vt -0.000002 0.029799
vt -0.000002 0.044693
vt 0.296617 0.000630
s 0
usemtl Material.001
f 84/88/17 115/90/17 131/89/17
f 86/91/18 116/93/18 80/92/18
f 131/89/19 86/91/19 78/94/19
f 145/95/20 83/97/20 79/96/20
f 145/95/21 100/99/21 99/98/21
f 143/100/22 144/101/22 99/98/22
f 142/102/23 143/100/23 98/103/23
f 141/104/24 142/102/24 97/105/24
f 140/106/25 141/104/25 96/107/25
f 140/106/26 95/109/26 94/108/26
f 139/110/27 94/108/27 93/111/27
f 137/112/28 138/113/28 93/111/28
f 137/112/29 92/115/29 91/114/29
f 136/116/30 91/114/30 90/117/30
f 134/118/31 135/119/31 90/117/31
f 134/118/32 89/121/32 88/120/32
f 133/122/33 88/120/33 87/123/33
f 131/89/34 132/124/34 87/123/34
f 79/96/35 81/126/35 130/125/35
f 99/98/36 100/99/36 130/125/36
f 99/98/37 129/128/37 128/127/37
f 97/105/38 98/103/38 128/127/38
f 97/105/39 127/130/39 126/129/39
f 96/107/40 126/129/40 125/131/40
f 94/108/41 95/109/41 125/131/41
f 93/111/42 94/108/42 124/132/42
f 93/111/43 123/134/43 122/133/43
f 91/114/44 92/115/44 122/133/44
f 90/117/45 91/114/45 121/135/45
f 90/117/46 120/137/46 119/136/46
f 88/120/47 89/121/47 119/136/47
f 88/120/48 118/139/48 117/138/48
f 86/91/49 87/123/49 117/138/49
f 85/140/50 83/97/50 145/95/50
f 101/141/51 145/95/51 144/101/51
f 103/142/52 102/143/52 144/101/52
f 103/142/53 143/100/53 142/102/53
f 105/144/54 104/145/54 142/102/54
f 106/146/55 105/144/55 141/104/55
f 106/146/56 140/106/56 139/110/56
f 108/147/57 107/148/57 139/110/57
f 108/147/58 138/113/58 137/112/58
f 110/149/59 109/150/59 137/112/59
f 111/151/60 110/149/60 136/116/60
f 111/151/61 135/119/61 134/118/61
f 112/152/62 134/118/62 133/122/62
f 114/153/63 113/154/63 133/122/63
f 114/153/64 132/124/64 131/89/64
f 84/88/65 131/89/65 82/155/65
f 86/91/66 80/92/66 78/94/66
f 131/89/67 78/94/67 82/155/67
f 145/95/68 79/96/68 100/99/68
f 145/95/69 99/98/69 144/101/69
f 143/100/70 99/98/70 98/103/70
f 142/102/71 98/103/71 97/105/71
f 141/104/72 97/105/72 96/107/72
f 140/106/73 96/107/73 95/109/73
f 140/106/74 94/108/74 139/110/74
f 139/110/75 93/111/75 138/113/75
f 137/112/76 93/111/76 92/115/76
f 137/112/77 91/114/77 136/116/77
f 136/116/78 90/117/78 135/119/78
f 134/118/79 90/117/79 89/121/79
f 134/118/80 88/120/80 133/122/80
f 133/122/81 87/123/81 132/124/81
f 131/89/82 87/123/82 86/91/82
f 79/96/83 130/125/83 100/99/83
f 99/98/84 130/125/84 129/128/84
f 99/98/85 128/127/85 98/103/85
f 97/105/86 128/127/86 127/130/86
f 97/105/87 126/129/87 96/107/87
f 96/107/88 125/131/88 95/109/88
f 94/108/89 125/131/89 124/132/89
f 93/111/90 124/132/90 123/134/90
f 93/111/91 122/133/91 92/115/91
f 91/114/92 122/133/92 121/135/92
f 90/117/93 121/135/93 120/137/93
f 90/117/94 119/136/94 89/121/94
f 88/120/95 119/136/95 118/139/95
f 88/120/96 117/138/96 87/123/96
f 86/91/97 117/138/97 116/93/97
f 85/140/98 145/95/98 101/141/98
f 101/141/99 144/101/99 102/143/99
f 103/142/100 144/101/100 143/100/100
f 103/142/101 142/102/101 104/145/101
f 105/144/102 142/102/102 141/104/102
f 106/146/103 141/104/103 140/106/103
f 106/146/104 139/110/104 107/148/104
f 108/147/105 139/110/105 138/113/105
f 108/147/106 137/112/106 109/150/106
f 110/149/107 137/112/107 136/116/107
f 111/151/108 136/116/108 135/119/108
f 111/151/109 134/118/109 112/152/109
f 112/152/110 133/122/110 113/154/110
f 114/153/111 133/122/111 132/124/111
f 114/153/112 131/89/112 115/90/112
